<svg viewBox="0 0 67 68" xmlns="http://www.w3.org/2000/svg" xmlns:xlink="http://www.w3.org/1999/xlink" width="67.000000" height="68.000000" fill="none" customFrame="#000000">
	<g id="icon-5">
		<path id="Ellipse" d="M2 33.625C2 16.159 16.2412 2 33.8085 2C37.0463 2 40.1712 2.48098 43.1147 3.375" stroke="rgb(255,255,255)" stroke-width="4" />
		<path id="Subtract" d="M40.6537 40.4309C36.8731 44.1897 30.7435 44.1897 26.9629 40.4309C23.1823 36.6721 23.1823 30.5779 26.9629 26.8191C30.7435 23.0603 57.3188 7.50006 58.7017 8.87506C60.0847 10.2501 44.4343 36.6721 40.6537 40.4309ZM33.8081 30.8751C32.2805 30.8751 31.0422 32.1063 31.0422 33.6251C31.0422 35.1438 32.2805 36.3751 33.8081 36.3751C35.3357 36.3751 36.5741 35.1438 36.5741 33.6251C36.5741 32.1063 35.3357 30.8751 33.8081 30.8751Z" fill="rgb(255,255,255)" fill-rule="evenodd" />
		<ellipse id="Ellipse 2" rx="2.765957" ry="2.750000" cx="6.149014" cy="50.125" fill="rgb(255,255,255)" />
		<ellipse id="Ellipse 2.1" rx="2.765957" ry="2.750000" cx="17.2127342" cy="61.125" fill="rgb(255,255,255)" />
		<ellipse id="Ellipse 2.2" rx="2.765957" ry="2.750000" cx="33.8084373" cy="65.25" fill="rgb(255,255,255)" />
		<ellipse id="Ellipse 2.3" rx="2.765957" ry="2.750000" cx="50.4041405" cy="61.125" fill="rgb(255,255,255)" />
		<ellipse id="Ellipse 2.4" rx="2.765957" ry="2.750000" cx="60.0850487" cy="50.125" fill="rgb(255,255,255)" />
		<ellipse id="Ellipse 2.5" rx="2.765957" ry="2.750000" cx="64.2339783" cy="33.625" fill="rgb(255,255,255)" />
	</g>
</svg>
